<?xml version="1.0" encoding="iso-8859-1"?>
<!-- Uploaded to: SVG Repo, www.svgrepo.com, Generator: SVG Repo Mixer Tools -->
<svg fill="#000000" height="800px" width="800px" version="1.1" id="Layer_1" xmlns="http://www.w3.org/2000/svg" xmlns:xlink="http://www.w3.org/1999/xlink" 
	 viewBox="0 0 512 512" xml:space="preserve">
<g transform="translate(1 1)">
	<g>
		<g>
			<path d="M263.533,247.029v-68.322c11.005,1.343,19.877,5.319,25.6,11.232v22.395c0,5.12,3.413,8.533,8.533,8.533
				s8.533-3.413,8.533-8.533v-24.427c0.054-0.568,0.052-1.143,0-1.713v-25.06c0-5.12-3.413-8.533-8.533-8.533
				s-8.533,3.413-8.533,8.533v7.576c-7.352-3.907-16.029-6.303-25.6-7.182V152.6c0-5.12-3.413-8.533-8.533-8.533
				c-5.12,0-8.533,3.413-8.533,8.533v9.096c-26.196,3.398-51.2,22.153-51.2,50.637s25.004,47.239,51.2,50.637v68.284
				c-10.65-1.381-19.848-5.345-25.6-11.209v-22.38c0-5.12-3.413-8.533-8.533-8.533c-5.12,0-8.533,3.413-8.533,8.533v24.428
				c-0.054,0.568-0.052,1.142,0,1.712v25.06c0,5.12,3.413,8.533,8.533,8.533c5.12,0,8.533-3.413,8.533-8.533v-7.945
				c7.352,3.95,16.029,6.543,25.6,7.509v8.97c0,5.12,3.413,8.533,8.533,8.533c5.12,0,8.533-3.413,8.533-8.533v-9.096
				c26.196-3.398,51.2-22.153,51.2-50.637C314.733,269.182,289.73,250.427,263.533,247.029z M212.333,212.333
				c0-17.647,16.474-30.216,34.133-33.358v66.759C228.807,242.753,212.333,230.715,212.333,212.333z M263.533,331.068v-66.759
				c17.66,3.143,34.133,15.712,34.133,33.358C297.667,316.049,281.193,328.086,263.533,331.068z"/>
			<path d="M501.613,195.267h-5.12c-15.36,0-29.867-9.387-35.84-23.893l-0.853-2.56c-5.973-14.507-2.56-31.573,8.533-42.667
				l3.413-4.267c1.707-1.707,2.56-4.267,2.56-6.827c0-1.707-0.853-4.267-2.56-5.973l-71.68-71.68
				c-0.853-1.707-3.413-2.56-5.973-2.56c-1.707,0-4.267,0.853-5.973,2.56l-4.267,4.267c-11.093,11.093-28.16,14.507-42.667,8.533
				l-2.56-0.853c-14.507-5.973-23.893-19.627-23.893-35.84v-5.12c0-5.12-4.267-9.387-8.533-9.387H204.653
				c-5.12,0-9.387,4.267-9.387,9.387v5.12c0,16.213-9.387,29.867-23.893,35.84l-2.56,0.853c-14.507,5.973-31.573,2.56-42.667-8.533
				l-3.413-3.413c-3.413-3.413-9.387-3.413-12.8,0L37.4,109.08c-3.413,3.413-3.413,9.387,0,12.8l4.267,4.267
				c11.093,11.093,14.507,28.16,8.533,42.667l-0.853,2.56c-5.973,14.507-19.627,23.893-35.84,23.893h-5.12
				c-5.12,0-9.387,4.267-9.387,9.387v100.693c0,5.12,4.267,9.387,9.387,9.387h5.12c16.213,0,29.867,9.387,35.84,23.893l0.853,0.853
				c6.827,15.36,3.413,32.427-8.533,44.373l-3.413,3.413c-3.413,3.413-3.413,9.387,0,12.8l71.68,71.68
				c3.413,3.413,9.387,3.413,12.8,0l3.413-3.413c11.947-11.093,29.013-14.507,44.373-8.533
				c14.507,5.973,24.747,21.333,24.747,37.547v4.267c0,5.12,4.267,9.387,9.387,9.387h100.693c5.12,0,9.387-4.267,9.387-9.387v-4.267
				c0-16.213,9.387-31.573,24.747-37.547c15.36-6.827,32.427-3.413,44.373,8.533l3.413,3.413c3.413,3.413,9.387,3.413,12.8,0
				l72.533-69.973c1.707-1.707,2.56-4.267,2.56-6.827s-0.853-5.12-2.56-6.827l-4.267-4.267
				c-11.093-11.093-14.507-28.16-8.533-42.667l0.853-1.707c5.973-14.507,19.627-23.893,35.84-23.893h5.12
				c5.12,0,9.387-4.267,9.387-9.387V204.653C511,199.533,506.733,195.267,501.613,195.267z M494.787,298.52
				c-22.187,0.853-40.96,13.653-49.493,34.133l-0.853,2.56c-8.533,19.627-4.267,42.667,10.24,58.88l-60.587,60.587
				c-17.067-14.507-40.107-18.773-60.587-10.24c-20.48,8.533-34.133,27.307-35.84,49.493h-85.333
				c-1.707-22.187-15.36-40.96-34.987-49.493c-20.48-8.533-44.373-4.267-60.587,10.24l-60.587-60.587
				c14.507-17.067,18.773-40.107,10.24-60.587l-0.853-0.853c-8.533-19.627-28.16-33.28-49.493-34.133v-85.333
				c22.187-1.707,40.96-14.507,49.493-34.987l0.853-2.56c8.533-19.627,4.267-42.667-10.24-58.88l60.587-60.587
				c15.36,14.507,38.4,18.773,58.88,10.24l2.56-0.853c19.627-8.533,33.28-28.16,34.133-49.493h86.187
				c0.853,22.187,13.653,40.96,34.133,49.493l2.56,0.853c19.627,8.533,42.667,4.267,58.88-10.24l60.587,60.587
				c-14.507,15.36-18.773,38.4-10.24,58.88l0.853,2.56c8.533,19.627,28.16,33.28,49.493,34.133V298.52z"/>
			<path d="M255,92.867C165.4,92.867,92.867,165.4,92.867,255S165.4,417.133,255,417.133S417.133,344.6,417.133,255
				S344.6,92.867,255,92.867z M255,400.067c-80.213,0-145.067-64.853-145.067-145.067S174.787,109.933,255,109.933
				S400.067,174.787,400.067,255S335.213,400.067,255,400.067z"/>
		</g>
	</g>
</g>
</svg>